<mxfile host="app.diagrams.net" agent="Mozilla/5.0 (Windows NT 10.0; Win64; x64; rv:129.0) Gecko/20100101 Firefox/129.0" border="50" scale="3" compressed="false" locked="false" version="24.7.8">
  <diagram name="Blank" id="YmL12bMKpDGza6XwsDPr">
    <mxGraphModel dx="1575" dy="748" grid="0" gridSize="10" guides="1" tooltips="1" connect="1" arrows="1" fold="1" page="0" pageScale="1" pageWidth="827" pageHeight="1169" background="none" math="1" shadow="0">
      <root>
        <mxCell id="X5NqExCQtvZxIxQ7pmgY-0" />
        <mxCell id="1" parent="X5NqExCQtvZxIxQ7pmgY-0" />
        <mxCell id="ZFltCzr6f2ZrhAheu0pq-16" value="HTTPS, SSL/TLS, Certificate" style="swimlane;startSize=20;horizontal=1;containerType=tree;strokeColor=none;" parent="1" vertex="1">
          <mxGeometry x="-182" y="181" width="1298" height="1316" as="geometry">
            <mxRectangle x="316" y="318" width="190" height="26" as="alternateBounds" />
          </mxGeometry>
        </mxCell>
        <mxCell id="ZFltCzr6f2ZrhAheu0pq-81" value="&lt;span style=&quot;white-space: nowrap;&quot;&gt;Decrypt&amp;nbsp;&lt;/span&gt;&lt;span style=&quot;white-space: nowrap;&quot;&gt;Pre-master key&amp;nbsp;&lt;/span&gt;&lt;span style=&quot;white-space: nowrap; background-color: initial;&quot;&gt;with private key&lt;/span&gt;" style="text;html=1;align=left;verticalAlign=middle;whiteSpace=wrap;rounded=0;" parent="ZFltCzr6f2ZrhAheu0pq-16" vertex="1">
          <mxGeometry x="853" y="821" width="225" height="25" as="geometry" />
        </mxCell>
        <mxCell id="ZFltCzr6f2ZrhAheu0pq-17" value="" style="edgeStyle=entityRelationEdgeStyle;startArrow=none;endArrow=none;segment=10;curved=1;sourcePerimeterSpacing=0;targetPerimeterSpacing=0;rounded=0;" parent="ZFltCzr6f2ZrhAheu0pq-16" source="ZFltCzr6f2ZrhAheu0pq-21" target="ZFltCzr6f2ZrhAheu0pq-22" edge="1">
          <mxGeometry relative="1" as="geometry" />
        </mxCell>
        <mxCell id="ZFltCzr6f2ZrhAheu0pq-18" value="" style="edgeStyle=entityRelationEdgeStyle;startArrow=none;endArrow=none;segment=10;curved=1;sourcePerimeterSpacing=0;targetPerimeterSpacing=0;rounded=0;" parent="ZFltCzr6f2ZrhAheu0pq-16" source="ZFltCzr6f2ZrhAheu0pq-21" target="ZFltCzr6f2ZrhAheu0pq-23" edge="1">
          <mxGeometry relative="1" as="geometry" />
        </mxCell>
        <mxCell id="ZFltCzr6f2ZrhAheu0pq-19" value="" style="edgeStyle=entityRelationEdgeStyle;startArrow=none;endArrow=none;segment=10;curved=1;sourcePerimeterSpacing=0;targetPerimeterSpacing=0;rounded=0;" parent="ZFltCzr6f2ZrhAheu0pq-16" source="ZFltCzr6f2ZrhAheu0pq-21" target="ZFltCzr6f2ZrhAheu0pq-24" edge="1">
          <mxGeometry relative="1" as="geometry" />
        </mxCell>
        <mxCell id="ZFltCzr6f2ZrhAheu0pq-20" value="" style="edgeStyle=entityRelationEdgeStyle;startArrow=none;endArrow=none;segment=10;curved=1;sourcePerimeterSpacing=0;targetPerimeterSpacing=0;rounded=0;entryX=1;entryY=0.5;entryDx=0;entryDy=0;" parent="ZFltCzr6f2ZrhAheu0pq-16" source="ZFltCzr6f2ZrhAheu0pq-21" target="ZFltCzr6f2ZrhAheu0pq-25" edge="1">
          <mxGeometry relative="1" as="geometry" />
        </mxCell>
        <mxCell id="ZFltCzr6f2ZrhAheu0pq-21" value="&lt;b&gt;HTTPS&lt;/b&gt;" style="ellipse;whiteSpace=wrap;html=1;align=center;treeFolding=1;treeMoving=1;newEdgeStyle={&quot;edgeStyle&quot;:&quot;entityRelationEdgeStyle&quot;,&quot;startArrow&quot;:&quot;none&quot;,&quot;endArrow&quot;:&quot;none&quot;,&quot;segment&quot;:10,&quot;curved&quot;:1,&quot;sourcePerimeterSpacing&quot;:0,&quot;targetPerimeterSpacing&quot;:0};fillColor=#dae8fc;strokeColor=#6c8ebf;" parent="ZFltCzr6f2ZrhAheu0pq-16" vertex="1">
          <mxGeometry x="662" y="142" width="100" height="40" as="geometry" />
        </mxCell>
        <mxCell id="ZFltCzr6f2ZrhAheu0pq-22" value="Topic" style="whiteSpace=wrap;html=1;rounded=1;arcSize=50;align=center;verticalAlign=middle;strokeWidth=1;autosize=1;spacing=4;treeFolding=1;treeMoving=1;newEdgeStyle={&quot;edgeStyle&quot;:&quot;entityRelationEdgeStyle&quot;,&quot;startArrow&quot;:&quot;none&quot;,&quot;endArrow&quot;:&quot;none&quot;,&quot;segment&quot;:10,&quot;curved&quot;:1,&quot;sourcePerimeterSpacing&quot;:0,&quot;targetPerimeterSpacing&quot;:0};" parent="ZFltCzr6f2ZrhAheu0pq-16" vertex="1">
          <mxGeometry x="822" y="122" width="80" height="20" as="geometry" />
        </mxCell>
        <mxCell id="ZFltCzr6f2ZrhAheu0pq-23" value="Branch" style="whiteSpace=wrap;html=1;shape=partialRectangle;top=0;left=0;bottom=1;right=0;points=[[0,1],[1,1]];fillColor=none;align=center;verticalAlign=bottom;routingCenterY=0.5;snapToPoint=1;autosize=1;treeFolding=1;treeMoving=1;newEdgeStyle={&quot;edgeStyle&quot;:&quot;entityRelationEdgeStyle&quot;,&quot;startArrow&quot;:&quot;none&quot;,&quot;endArrow&quot;:&quot;none&quot;,&quot;segment&quot;:10,&quot;curved&quot;:1,&quot;sourcePerimeterSpacing&quot;:0,&quot;targetPerimeterSpacing&quot;:0};" parent="ZFltCzr6f2ZrhAheu0pq-16" vertex="1">
          <mxGeometry x="822" y="162" width="70" height="30" as="geometry" />
        </mxCell>
        <mxCell id="ZFltCzr6f2ZrhAheu0pq-24" value="Why HTTPS" style="whiteSpace=wrap;html=1;rounded=1;arcSize=50;align=center;verticalAlign=middle;strokeWidth=1;autosize=1;spacing=4;treeFolding=1;treeMoving=1;newEdgeStyle={&quot;edgeStyle&quot;:&quot;entityRelationEdgeStyle&quot;,&quot;startArrow&quot;:&quot;none&quot;,&quot;endArrow&quot;:&quot;none&quot;,&quot;segment&quot;:10,&quot;curved&quot;:1,&quot;sourcePerimeterSpacing&quot;:0,&quot;targetPerimeterSpacing&quot;:0};fillColor=#f8cecc;strokeColor=#b85450;" parent="ZFltCzr6f2ZrhAheu0pq-16" vertex="1">
          <mxGeometry x="527" y="128" width="110" height="30" as="geometry" />
        </mxCell>
        <mxCell id="ZFltCzr6f2ZrhAheu0pq-25" value="Certificate&amp;nbsp;&lt;span style=&quot;background-color: initial;&quot;&gt;Authority&lt;/span&gt;" style="whiteSpace=wrap;html=1;shape=label;top=0;left=0;bottom=1;right=0;fillColor=#dae8fc;align=center;verticalAlign=middle;routingCenterY=0.5;snapToPoint=1;autosize=1;treeFolding=1;treeMoving=1;newEdgeStyle={&quot;edgeStyle&quot;:&quot;entityRelationEdgeStyle&quot;,&quot;startArrow&quot;:&quot;none&quot;,&quot;endArrow&quot;:&quot;none&quot;,&quot;segment&quot;:10,&quot;curved&quot;:1,&quot;sourcePerimeterSpacing&quot;:0,&quot;targetPerimeterSpacing&quot;:0};rounded=1;arcSize=50;strokeWidth=1;spacing=4;strokeColor=#6c8ebf;" parent="ZFltCzr6f2ZrhAheu0pq-16" vertex="1">
          <mxGeometry x="488" y="253" width="143" height="30" as="geometry" />
        </mxCell>
        <mxCell id="ZFltCzr6f2ZrhAheu0pq-39" value="身份识别&lt;div&gt;Identification&lt;/div&gt;" style="whiteSpace=wrap;html=1;rounded=1;arcSize=50;align=center;verticalAlign=bottom;strokeWidth=1;autosize=1;spacing=4;treeFolding=1;treeMoving=1;newEdgeStyle={&quot;edgeStyle&quot;:&quot;entityRelationEdgeStyle&quot;,&quot;startArrow&quot;:&quot;none&quot;,&quot;endArrow&quot;:&quot;none&quot;,&quot;segment&quot;:10,&quot;curved&quot;:1,&quot;sourcePerimeterSpacing&quot;:0,&quot;targetPerimeterSpacing&quot;:0};shape=partialRectangle;top=0;left=0;bottom=1;right=0;points=[[0,1],[1,1]];fillColor=none;routingCenterY=0.5;snapToPoint=1;recursiveResize=0;" parent="ZFltCzr6f2ZrhAheu0pq-16" vertex="1">
          <mxGeometry x="356" y="149" width="106" height="45" as="geometry" />
        </mxCell>
        <mxCell id="ZFltCzr6f2ZrhAheu0pq-33" value="完整性Integrity&lt;div style=&quot;font-size: 12px;&quot;&gt;&lt;span style=&quot;font-size: 12px;&quot;&gt;(被篡改,&amp;nbsp;&lt;/span&gt;&lt;span style=&quot;background-color: initial; font-size: 11px;&quot;&gt;MITM)&lt;/span&gt;&lt;/div&gt;" style="whiteSpace=wrap;html=1;rounded=1;arcSize=50;align=center;verticalAlign=bottom;strokeWidth=1;autosize=1;spacing=4;treeFolding=1;treeMoving=1;newEdgeStyle={&quot;edgeStyle&quot;:&quot;entityRelationEdgeStyle&quot;,&quot;startArrow&quot;:&quot;none&quot;,&quot;endArrow&quot;:&quot;none&quot;,&quot;segment&quot;:10,&quot;curved&quot;:1,&quot;sourcePerimeterSpacing&quot;:0,&quot;targetPerimeterSpacing&quot;:0};shape=partialRectangle;top=0;left=0;bottom=1;right=0;points=[[0,1],[1,1]];fillColor=none;routingCenterY=0.5;snapToPoint=1;recursiveResize=0;fontSize=12;" parent="ZFltCzr6f2ZrhAheu0pq-16" vertex="1">
          <mxGeometry x="342" y="94" width="120" height="45" as="geometry" />
        </mxCell>
        <mxCell id="ZFltCzr6f2ZrhAheu0pq-31" value="&lt;font style=&quot;font-size: 11px;&quot;&gt;隐私性Privacy&lt;/font&gt;&lt;div style=&quot;font-size: 11px;&quot;&gt;&lt;font style=&quot;font-size: 11px;&quot;&gt;(被窃听)&lt;/font&gt;&lt;/div&gt;" style="whiteSpace=wrap;html=1;rounded=1;arcSize=50;align=center;verticalAlign=bottom;strokeWidth=1;autosize=1;spacing=4;treeFolding=1;treeMoving=1;newEdgeStyle={&quot;edgeStyle&quot;:&quot;entityRelationEdgeStyle&quot;,&quot;startArrow&quot;:&quot;none&quot;,&quot;endArrow&quot;:&quot;none&quot;,&quot;segment&quot;:10,&quot;curved&quot;:1,&quot;sourcePerimeterSpacing&quot;:0,&quot;targetPerimeterSpacing&quot;:0};shape=partialRectangle;top=0;left=0;bottom=1;right=0;points=[[0,1],[1,1]];fillColor=none;routingCenterY=0.5;snapToPoint=1;recursiveResize=0;" parent="ZFltCzr6f2ZrhAheu0pq-16" vertex="1">
          <mxGeometry x="348" y="39" width="114" height="45" as="geometry" />
        </mxCell>
        <mxCell id="ZFltCzr6f2ZrhAheu0pq-38" value="" style="edgeStyle=entityRelationEdgeStyle;startArrow=none;endArrow=none;segment=10;curved=1;sourcePerimeterSpacing=0;targetPerimeterSpacing=0;rounded=0;" parent="ZFltCzr6f2ZrhAheu0pq-16" source="ZFltCzr6f2ZrhAheu0pq-24" target="ZFltCzr6f2ZrhAheu0pq-39" edge="1">
          <mxGeometry relative="1" as="geometry">
            <mxPoint x="733" y="473" as="sourcePoint" />
          </mxGeometry>
        </mxCell>
        <mxCell id="ZFltCzr6f2ZrhAheu0pq-32" value="" style="edgeStyle=entityRelationEdgeStyle;startArrow=none;endArrow=none;segment=10;curved=1;sourcePerimeterSpacing=0;targetPerimeterSpacing=0;rounded=0;" parent="ZFltCzr6f2ZrhAheu0pq-16" source="ZFltCzr6f2ZrhAheu0pq-24" target="ZFltCzr6f2ZrhAheu0pq-33" edge="1">
          <mxGeometry relative="1" as="geometry">
            <mxPoint x="572" y="439" as="sourcePoint" />
          </mxGeometry>
        </mxCell>
        <mxCell id="ZFltCzr6f2ZrhAheu0pq-30" value="" style="edgeStyle=entityRelationEdgeStyle;startArrow=none;endArrow=none;segment=10;curved=1;sourcePerimeterSpacing=0;targetPerimeterSpacing=0;rounded=0;" parent="ZFltCzr6f2ZrhAheu0pq-16" source="ZFltCzr6f2ZrhAheu0pq-24" target="ZFltCzr6f2ZrhAheu0pq-31" edge="1">
          <mxGeometry relative="1" as="geometry">
            <mxPoint x="725" y="469" as="sourcePoint" />
          </mxGeometry>
        </mxCell>
        <mxCell id="ZFltCzr6f2ZrhAheu0pq-50" value="" style="edgeStyle=entityRelationEdgeStyle;startArrow=none;endArrow=none;segment=10;curved=1;sourcePerimeterSpacing=0;targetPerimeterSpacing=0;rounded=0;exitX=0;exitY=1;exitDx=0;exitDy=0;entryX=1;entryY=0.5;entryDx=0;entryDy=0;" parent="ZFltCzr6f2ZrhAheu0pq-16" source="ZFltCzr6f2ZrhAheu0pq-39" target="ZFltCzr6f2ZrhAheu0pq-51" edge="1">
          <mxGeometry relative="1" as="geometry">
            <mxPoint x="666" y="324" as="sourcePoint" />
          </mxGeometry>
        </mxCell>
        <mxCell id="ZFltCzr6f2ZrhAheu0pq-51" value="数字签名&lt;div&gt;Digital signature&lt;/div&gt;" style="whiteSpace=wrap;html=1;rounded=1;arcSize=50;align=center;verticalAlign=middle;strokeWidth=1;autosize=1;spacing=4;treeFolding=1;treeMoving=1;newEdgeStyle={&quot;edgeStyle&quot;:&quot;entityRelationEdgeStyle&quot;,&quot;startArrow&quot;:&quot;none&quot;,&quot;endArrow&quot;:&quot;none&quot;,&quot;segment&quot;:10,&quot;curved&quot;:1,&quot;sourcePerimeterSpacing&quot;:0,&quot;targetPerimeterSpacing&quot;:0};shape=label;top=0;left=0;bottom=1;right=0;fillColor=#fff2cc;routingCenterY=0.5;snapToPoint=1;recursiveResize=0;fontSize=12;strokeColor=#d6b656;" parent="ZFltCzr6f2ZrhAheu0pq-16" vertex="1">
          <mxGeometry x="162" y="154.5" width="125" height="45" as="geometry" />
        </mxCell>
        <mxCell id="ZFltCzr6f2ZrhAheu0pq-61" value="Client" style="shape=umlLifeline;perimeter=lifelinePerimeter;whiteSpace=wrap;html=1;container=1;dropTarget=0;collapsible=0;recursiveResize=0;outlineConnect=0;portConstraint=eastwest;newEdgeStyle={&quot;edgeStyle&quot;:&quot;elbowEdgeStyle&quot;,&quot;elbow&quot;:&quot;vertical&quot;,&quot;curved&quot;:0,&quot;rounded&quot;:0};" parent="ZFltCzr6f2ZrhAheu0pq-16" vertex="1">
          <mxGeometry x="525" y="411" width="100" height="888" as="geometry" />
        </mxCell>
        <mxCell id="ZFltCzr6f2ZrhAheu0pq-65" value="" style="html=1;points=[[0,0,0,0,5],[0,1,0,0,-5],[1,0,0,0,5],[1,1,0,0,-5]];perimeter=orthogonalPerimeter;outlineConnect=0;targetShapes=umlLifeline;portConstraint=eastwest;newEdgeStyle={&quot;curved&quot;:0,&quot;rounded&quot;:0};" parent="ZFltCzr6f2ZrhAheu0pq-61" vertex="1">
          <mxGeometry x="45" y="239" width="10" height="80" as="geometry" />
        </mxCell>
        <mxCell id="ZFltCzr6f2ZrhAheu0pq-62" value="Server" style="shape=umlLifeline;perimeter=lifelinePerimeter;whiteSpace=wrap;html=1;container=1;dropTarget=0;collapsible=0;recursiveResize=0;outlineConnect=0;portConstraint=eastwest;newEdgeStyle={&quot;edgeStyle&quot;:&quot;elbowEdgeStyle&quot;,&quot;elbow&quot;:&quot;vertical&quot;,&quot;curved&quot;:0,&quot;rounded&quot;:0};" parent="ZFltCzr6f2ZrhAheu0pq-16" vertex="1">
          <mxGeometry x="789" y="411" width="100" height="888" as="geometry" />
        </mxCell>
        <mxCell id="ZFltCzr6f2ZrhAheu0pq-63" value="" style="html=1;points=[[0,0,0,0,5],[0,1,0,0,-5],[1,0,0,0,5],[1,1,0,0,-5]];perimeter=orthogonalPerimeter;outlineConnect=0;targetShapes=umlLifeline;portConstraint=eastwest;newEdgeStyle={&quot;curved&quot;:0,&quot;rounded&quot;:0};" parent="ZFltCzr6f2ZrhAheu0pq-62" vertex="1">
          <mxGeometry x="45" y="101" width="10" height="80" as="geometry" />
        </mxCell>
        <mxCell id="ZFltCzr6f2ZrhAheu0pq-72" value="" style="html=1;points=[[0,0,0,0,5],[0,1,0,0,-5],[1,0,0,0,5],[1,1,0,0,-5]];perimeter=orthogonalPerimeter;outlineConnect=0;targetShapes=umlLifeline;portConstraint=eastwest;newEdgeStyle={&quot;curved&quot;:0,&quot;rounded&quot;:0};" parent="ZFltCzr6f2ZrhAheu0pq-62" vertex="1">
          <mxGeometry x="45" y="399" width="10" height="80" as="geometry" />
        </mxCell>
        <mxCell id="ZFltCzr6f2ZrhAheu0pq-64" value="&lt;b&gt;Client Hello:&lt;/b&gt;&lt;div&gt;&lt;ol&gt;&lt;li style=&quot;text-align: left;&quot;&gt;&lt;span style=&quot;&quot;&gt;SSL/TLS version&lt;/span&gt;&lt;br&gt;&lt;/li&gt;&lt;li&gt;encryption algorithms&lt;/li&gt;&lt;li&gt;client random number&lt;/li&gt;&lt;/ol&gt;&lt;/div&gt;" style="html=1;verticalAlign=bottom;startArrow=oval;endArrow=block;startSize=8;curved=0;rounded=0;entryX=0;entryY=0;entryDx=0;entryDy=5;" parent="ZFltCzr6f2ZrhAheu0pq-16" source="ZFltCzr6f2ZrhAheu0pq-61" target="ZFltCzr6f2ZrhAheu0pq-63" edge="1">
          <mxGeometry x="0.0019" relative="1" as="geometry">
            <mxPoint x="575" y="515" as="sourcePoint" />
            <mxPoint as="offset" />
          </mxGeometry>
        </mxCell>
        <mxCell id="ZFltCzr6f2ZrhAheu0pq-66" value="&lt;div style=&quot;&quot;&gt;&lt;b&gt;Server Hello:&lt;/b&gt;&lt;/div&gt;&lt;div&gt;&lt;ol&gt;&lt;li&gt;Return cert which include&lt;/li&gt;&lt;li style=&quot;text-align: left;&quot;&gt;server public key&lt;/li&gt;&lt;li style=&quot;text-align: left;&quot;&gt;server random number&lt;/li&gt;&lt;/ol&gt;&lt;/div&gt;" style="html=1;verticalAlign=bottom;startArrow=oval;endArrow=block;startSize=8;curved=0;rounded=0;" parent="ZFltCzr6f2ZrhAheu0pq-16" edge="1">
          <mxGeometry x="0.0019" relative="1" as="geometry">
            <mxPoint x="838.5" y="655" as="sourcePoint" />
            <mxPoint x="579" y="655" as="targetPoint" />
            <mxPoint as="offset" />
          </mxGeometry>
        </mxCell>
        <mxCell id="ZFltCzr6f2ZrhAheu0pq-68" value="" style="sketch=0;pointerEvents=1;shadow=0;dashed=0;html=1;strokeColor=none;labelPosition=center;verticalLabelPosition=bottom;verticalAlign=top;outlineConnect=0;align=center;shape=mxgraph.office.security.key_permissions;fillColor=#DA4026;aspect=fixed;" parent="ZFltCzr6f2ZrhAheu0pq-16" vertex="1">
          <mxGeometry x="1071" y="809.04" width="17" height="36.04" as="geometry" />
        </mxCell>
        <mxCell id="ZFltCzr6f2ZrhAheu0pq-69" value="" style="image;sketch=0;html=1;points=[];align=center;fontSize=12;image=img/lib/mscae/Certificate.svg;aspect=fixed;" parent="ZFltCzr6f2ZrhAheu0pq-16" vertex="1">
          <mxGeometry x="658" y="657.53" width="106.52" height="89.47" as="geometry" />
        </mxCell>
        <mxCell id="ZFltCzr6f2ZrhAheu0pq-67" value="" style="sketch=0;pointerEvents=1;shadow=0;dashed=0;html=1;strokeColor=none;labelPosition=center;verticalLabelPosition=bottom;verticalAlign=top;outlineConnect=0;align=center;shape=mxgraph.office.security.key_permissions;fillColor=#7FBA42;rotation=-90;aspect=fixed;" parent="ZFltCzr6f2ZrhAheu0pq-16" vertex="1">
          <mxGeometry x="702.76" y="657.53" width="17" height="36.04" as="geometry" />
        </mxCell>
        <mxCell id="ZFltCzr6f2ZrhAheu0pq-73" value="&lt;div&gt;&lt;b&gt;Client Key Exchange:&lt;/b&gt;&lt;/div&gt;&lt;div&gt;Encrypt Pre-master key&lt;/div&gt;&lt;div&gt;with server public key&lt;/div&gt;" style="html=1;verticalAlign=bottom;startArrow=oval;endArrow=block;startSize=8;curved=0;rounded=0;entryX=0;entryY=0;entryDx=0;entryDy=5;align=center;" parent="ZFltCzr6f2ZrhAheu0pq-16" target="ZFltCzr6f2ZrhAheu0pq-72" edge="1">
          <mxGeometry relative="1" as="geometry">
            <mxPoint x="574.5" y="815" as="sourcePoint" />
          </mxGeometry>
        </mxCell>
        <mxCell id="ZFltCzr6f2ZrhAheu0pq-74" value="" style="sketch=0;pointerEvents=1;shadow=0;dashed=0;html=1;strokeColor=none;labelPosition=center;verticalLabelPosition=bottom;verticalAlign=top;outlineConnect=0;align=center;shape=mxgraph.office.security.key_permissions;fillColor=#7FBA42;rotation=0;aspect=fixed;" parent="ZFltCzr6f2ZrhAheu0pq-16" vertex="1">
          <mxGeometry x="620" y="773" width="17" height="36.04" as="geometry" />
        </mxCell>
        <mxCell id="ZFltCzr6f2ZrhAheu0pq-75" value="&lt;span style=&quot;font-size: 11px; white-space: nowrap; background-color: initial;&quot;&gt;choose SSL/TLS version,&amp;nbsp;&lt;/span&gt;&lt;span style=&quot;background-color: initial; font-size: 11px; white-space: nowrap;&quot;&gt;encryption algorithm&lt;/span&gt;&lt;br&gt;&lt;span style=&quot;font-size: 11px; white-space: nowrap;&quot;&gt;&lt;br&gt;&lt;/span&gt;&lt;span style=&quot;font-size: 11px; white-space: nowrap; background-color: initial;&quot;&gt;client random number&lt;/span&gt;" style="text;html=1;align=left;verticalAlign=middle;whiteSpace=wrap;rounded=0;" parent="ZFltCzr6f2ZrhAheu0pq-16" vertex="1">
          <mxGeometry x="853" y="542" width="257" height="56" as="geometry" />
        </mxCell>
        <mxCell id="ZFltCzr6f2ZrhAheu0pq-76" value="&lt;span style=&quot;background-color: initial;&quot;&gt;server random number&lt;/span&gt;&lt;br&gt;&lt;span style=&quot;background-color: initial;&quot;&gt;server certificate (public key)&lt;/span&gt;&lt;div&gt;&lt;span style=&quot;background-color: initial;&quot;&gt;&lt;br&gt;&lt;/span&gt;&lt;/div&gt;&lt;div&gt;&lt;span style=&quot;background-color: initial;&quot;&gt;validate certificate&lt;/span&gt;&lt;/div&gt;" style="text;html=1;align=left;verticalAlign=middle;whiteSpace=wrap;rounded=0;" parent="ZFltCzr6f2ZrhAheu0pq-16" vertex="1">
          <mxGeometry x="399" y="653" width="161" height="73" as="geometry" />
        </mxCell>
        <mxCell id="ZFltCzr6f2ZrhAheu0pq-80" value="Generate &quot;Pre-master&quot; key" style="text;html=1;align=center;verticalAlign=middle;whiteSpace=wrap;rounded=0;" parent="ZFltCzr6f2ZrhAheu0pq-16" vertex="1">
          <mxGeometry x="407" y="791" width="153" height="30" as="geometry" />
        </mxCell>
        <mxCell id="ZFltCzr6f2ZrhAheu0pq-82" value="" style="edgeStyle=entityRelationEdgeStyle;startArrow=none;endArrow=none;segment=10;curved=1;sourcePerimeterSpacing=0;targetPerimeterSpacing=0;rounded=0;entryX=1;entryY=0.5;entryDx=0;entryDy=0;exitX=0;exitY=0.5;exitDx=0;exitDy=0;" parent="ZFltCzr6f2ZrhAheu0pq-16" source="ZFltCzr6f2ZrhAheu0pq-25" target="ZFltCzr6f2ZrhAheu0pq-83" edge="1">
          <mxGeometry relative="1" as="geometry">
            <mxPoint x="480" y="343" as="sourcePoint" />
          </mxGeometry>
        </mxCell>
        <mxCell id="ZFltCzr6f2ZrhAheu0pq-83" value="objectives" style="whiteSpace=wrap;html=1;shape=label;top=0;left=0;bottom=1;right=0;fillColor=#fff2cc;align=center;verticalAlign=middle;routingCenterY=0.5;snapToPoint=1;autosize=1;treeFolding=1;treeMoving=1;newEdgeStyle={&quot;edgeStyle&quot;:&quot;entityRelationEdgeStyle&quot;,&quot;startArrow&quot;:&quot;none&quot;,&quot;endArrow&quot;:&quot;none&quot;,&quot;segment&quot;:10,&quot;curved&quot;:1,&quot;sourcePerimeterSpacing&quot;:0,&quot;targetPerimeterSpacing&quot;:0};rounded=1;arcSize=50;strokeWidth=1;spacing=4;strokeColor=#d6b656;" parent="ZFltCzr6f2ZrhAheu0pq-16" vertex="1">
          <mxGeometry x="335" y="305" width="92" height="30" as="geometry" />
        </mxCell>
        <mxCell id="ZFltCzr6f2ZrhAheu0pq-86" value="" style="edgeStyle=entityRelationEdgeStyle;startArrow=none;endArrow=none;segment=10;curved=1;sourcePerimeterSpacing=0;targetPerimeterSpacing=0;rounded=0;entryX=1;entryY=1;entryDx=0;entryDy=0;exitX=0;exitY=0.5;exitDx=0;exitDy=0;" parent="ZFltCzr6f2ZrhAheu0pq-16" source="ZFltCzr6f2ZrhAheu0pq-83" target="ZFltCzr6f2ZrhAheu0pq-87" edge="1">
          <mxGeometry relative="1" as="geometry">
            <mxPoint x="306" y="449" as="sourcePoint" />
          </mxGeometry>
        </mxCell>
        <mxCell id="ZFltCzr6f2ZrhAheu0pq-87" value="Issuing cerificates" style="whiteSpace=wrap;html=1;shape=partialRectangle;top=0;left=0;bottom=1;right=0;fillColor=none;align=center;verticalAlign=bottom;routingCenterY=0.5;snapToPoint=1;autosize=1;treeFolding=1;treeMoving=1;newEdgeStyle={&quot;edgeStyle&quot;:&quot;entityRelationEdgeStyle&quot;,&quot;startArrow&quot;:&quot;none&quot;,&quot;endArrow&quot;:&quot;none&quot;,&quot;segment&quot;:10,&quot;curved&quot;:1,&quot;sourcePerimeterSpacing&quot;:0,&quot;targetPerimeterSpacing&quot;:0};rounded=1;arcSize=50;strokeWidth=1;spacing=4;strokeColor=#666666;fontColor=#333333;points=[[0,1],[1,1]];recursiveResize=0;" parent="ZFltCzr6f2ZrhAheu0pq-16" vertex="1">
          <mxGeometry x="137" y="328" width="134" height="30" as="geometry" />
        </mxCell>
        <mxCell id="ZFltCzr6f2ZrhAheu0pq-88" value="" style="edgeStyle=entityRelationEdgeStyle;startArrow=none;endArrow=none;segment=10;curved=1;sourcePerimeterSpacing=0;targetPerimeterSpacing=0;rounded=0;entryX=1;entryY=1;entryDx=0;entryDy=0;exitX=0;exitY=0.5;exitDx=0;exitDy=0;" parent="ZFltCzr6f2ZrhAheu0pq-16" source="ZFltCzr6f2ZrhAheu0pq-83" target="ZFltCzr6f2ZrhAheu0pq-89" edge="1">
          <mxGeometry relative="1" as="geometry">
            <mxPoint x="153" y="501" as="sourcePoint" />
          </mxGeometry>
        </mxCell>
        <mxCell id="ZFltCzr6f2ZrhAheu0pq-89" value="Identify certificate owner" style="whiteSpace=wrap;html=1;shape=partialRectangle;top=0;left=0;bottom=1;right=0;fillColor=none;align=center;verticalAlign=bottom;routingCenterY=0.5;snapToPoint=1;autosize=1;treeFolding=1;treeMoving=1;newEdgeStyle={&quot;edgeStyle&quot;:&quot;entityRelationEdgeStyle&quot;,&quot;startArrow&quot;:&quot;none&quot;,&quot;endArrow&quot;:&quot;none&quot;,&quot;segment&quot;:10,&quot;curved&quot;:1,&quot;sourcePerimeterSpacing&quot;:0,&quot;targetPerimeterSpacing&quot;:0};rounded=1;arcSize=50;strokeWidth=1;spacing=4;strokeColor=#666666;fontColor=#333333;points=[[0,1],[1,1]];recursiveResize=0;" parent="ZFltCzr6f2ZrhAheu0pq-16" vertex="1">
          <mxGeometry x="103" y="375" width="168" height="30" as="geometry" />
        </mxCell>
        <mxCell id="ZFltCzr6f2ZrhAheu0pq-90" value="" style="edgeStyle=entityRelationEdgeStyle;startArrow=none;endArrow=none;segment=10;curved=1;sourcePerimeterSpacing=0;targetPerimeterSpacing=0;rounded=0;entryX=1;entryY=1;entryDx=0;entryDy=0;exitX=0;exitY=0.5;exitDx=0;exitDy=0;" parent="ZFltCzr6f2ZrhAheu0pq-16" source="ZFltCzr6f2ZrhAheu0pq-83" target="ZFltCzr6f2ZrhAheu0pq-91" edge="1">
          <mxGeometry relative="1" as="geometry">
            <mxPoint x="153" y="501" as="sourcePoint" />
          </mxGeometry>
        </mxCell>
        <mxCell id="ZFltCzr6f2ZrhAheu0pq-91" value="Certificate validation" style="whiteSpace=wrap;html=1;shape=partialRectangle;top=0;left=0;bottom=1;right=0;fillColor=none;align=center;verticalAlign=bottom;routingCenterY=0.5;snapToPoint=1;autosize=1;treeFolding=1;treeMoving=1;newEdgeStyle={&quot;edgeStyle&quot;:&quot;entityRelationEdgeStyle&quot;,&quot;startArrow&quot;:&quot;none&quot;,&quot;endArrow&quot;:&quot;none&quot;,&quot;segment&quot;:10,&quot;curved&quot;:1,&quot;sourcePerimeterSpacing&quot;:0,&quot;targetPerimeterSpacing&quot;:0};rounded=1;arcSize=50;strokeWidth=1;spacing=4;strokeColor=#666666;fontColor=#333333;points=[[0,1],[1,1]];recursiveResize=0;" parent="ZFltCzr6f2ZrhAheu0pq-16" vertex="1">
          <mxGeometry x="124" y="422" width="147" height="30" as="geometry" />
        </mxCell>
        <mxCell id="ZFltCzr6f2ZrhAheu0pq-93" value="" style="image;sketch=0;html=1;points=[];align=center;fontSize=12;image=img/lib/mscae/Certificate.svg;aspect=fixed;" parent="ZFltCzr6f2ZrhAheu0pq-16" vertex="1">
          <mxGeometry x="273" y="648" width="106.52" height="89.47" as="geometry" />
        </mxCell>
        <mxCell id="ZFltCzr6f2ZrhAheu0pq-94" value="" style="sketch=0;pointerEvents=1;shadow=0;dashed=0;html=1;strokeColor=none;labelPosition=center;verticalLabelPosition=bottom;verticalAlign=top;outlineConnect=0;align=center;shape=mxgraph.office.security.key_permissions;fillColor=#7FBA42;rotation=-90;aspect=fixed;" parent="ZFltCzr6f2ZrhAheu0pq-16" vertex="1">
          <mxGeometry x="317.76" y="648" width="17" height="36.04" as="geometry" />
        </mxCell>
        <mxCell id="ZFltCzr6f2ZrhAheu0pq-95" value="" style="image;sketch=0;html=1;points=[];align=center;fontSize=12;image=img/lib/mscae/Certificate.svg;aspect=fixed;" parent="ZFltCzr6f2ZrhAheu0pq-16" vertex="1">
          <mxGeometry x="934.24" y="411" width="106.52" height="89.47" as="geometry" />
        </mxCell>
        <mxCell id="ZFltCzr6f2ZrhAheu0pq-96" value="" style="sketch=0;pointerEvents=1;shadow=0;dashed=0;html=1;strokeColor=none;labelPosition=center;verticalLabelPosition=bottom;verticalAlign=top;outlineConnect=0;align=center;shape=mxgraph.office.security.key_permissions;fillColor=#7FBA42;rotation=-90;aspect=fixed;" parent="ZFltCzr6f2ZrhAheu0pq-16" vertex="1">
          <mxGeometry x="979" y="411" width="17" height="36.04" as="geometry" />
        </mxCell>
        <mxCell id="ZFltCzr6f2ZrhAheu0pq-97" value="" style="sketch=0;pointerEvents=1;shadow=0;dashed=0;html=1;strokeColor=none;labelPosition=center;verticalLabelPosition=bottom;verticalAlign=top;outlineConnect=0;align=center;shape=mxgraph.office.security.key_permissions;fillColor=#DA4026;aspect=fixed;rotation=-90;" parent="ZFltCzr6f2ZrhAheu0pq-16" vertex="1">
          <mxGeometry x="1062" y="411" width="17" height="36.04" as="geometry" />
        </mxCell>
        <mxCell id="ZFltCzr6f2ZrhAheu0pq-98" value="" style="shape=image;editableCssRules=.*;verticalLabelPosition=bottom;labelBackgroundColor=default;verticalAlign=top;aspect=fixed;imageAspect=0;image=data:image/svg+xml,PHN2ZyB4bWxucz0iaHR0cDovL3d3dy53My5vcmcvMjAwMC9zdmciIHZpZXdCb3g9Ii0wLjUgLTAuNSAyOC4wMDIgMjgiIGhlaWdodD0iMjgiIHdpZHRoPSIyOC4wMDIiPiYjeGE7CSAgPHN0eWxlIHR5cGU9InRleHQvY3NzIj4mI3hhOwkJLnN0MHtzdG9wLWNvbG9yOiMwMGNlYWM7fSYjeGE7CQkuc3Qxe3N0b3AtY29sb3I6IzA3ODM4Zjt9JiN4YTsJICA8L3N0eWxlPiYjeGE7CTxkZWZzPiYjeGE7CQk8bGluZWFyR3JhZGllbnQgZ3JhZGllbnRVbml0cz0idXNlclNwYWNlT25Vc2UiIHkyPSIyNS4zMSIgeDI9IjIzLjQ1NCIgeTE9IjMuNDc0IiB4MT0iMi4wMzkiIGlkPSJBIj4mI3hhOwkJCTxzdG9wIGNsYXNzPSJzdDAiLz4mI3hhOwkJCTxzdG9wIGNsYXNzPSJzdDEiIG9mZnNldD0iMSIvPiYjeGE7CQk8L2xpbmVhckdyYWRpZW50PiYjeGE7CTwvZGVmcz4mI3hhOwk8cGF0aCBmaWxsPSJ1cmwoI0EpIiBkPSJNMjcuMDYzIDIwLjkyNGMuMjkzLjI5My40MzguNjIxLjQzOC45ODd2NC4xNjVjMCAuOTQ5LS40NzQgMS40MjQtMS40MjYgMS40MjRoLTQuMTYzYy0uMTg2LS4wMDItLjM2OS0uMDQyLS41MzktLjExN3MtLjMyMi0uMTg1LS40NDgtLjMyMWwtLjk4Ny0uOTg1aC0yLjI0NGExLjUzIDEuNTMgMCAwIDEtMS4wNDMtLjM4NGMtLjEyOC0uMTMtLjIyNy0uMjg0LS4yOTMtLjQ1NHMtLjA5Ni0uMzUxLS4wODktLjUzM3YtMS40MjRoLTEuMzdhMS41MyAxLjUzIDAgMCAxLTEuMDQyLS4zODRjLS4xMjgtLjEzLS4yMjgtLjI4NC0uMjk0LS40NTNzLS4wOTctLjM1MS0uMDktLjUzMnYtMS40MjZoLTEuMzdjLS45NSAwLTEuNDI2LS40NzMtMS40MjYtMS40MjRWMTYuODdsLS41NDctLjYwM0g3Ljg4NGMtMS4xMzEgMC0yLjIwOS0uMjE5LTMuMjMyLS42NThhOC40OCA4LjQ4IDAgMCAxLTIuNjg1LTEuODA4Yy0uNzcxLS43Ny0xLjM4Ni0xLjY4Mi0xLjgxMS0yLjY4NUE4LjEyIDguMTIgMCAwIDEtLjUgNy44ODRjMC0xLjE3LjIxOS0yLjI0Ni42NTgtMy4yMzMuNDI1LTEuMDAzIDEuMDM5LTEuOTE0IDEuODA4LTIuNjg1UzMuNjUuNTgyIDQuNjU0LjE1OEE4LjEyIDguMTIgMCAwIDEgNy44ODUtLjVjMS4xNjggMCAyLjI0NC4yMTkgMy4yMzIuNjU4IDEuMDI0LjQzOCAxLjkxOCAxLjA0IDIuNjg2IDEuODA2czEuMzY4IDEuNjY0IDEuODA2IDIuNjg2Yy40MzguOTg3LjY1OSAyLjA2NC42NTkgMy4yMzN2Mi4yNDV6bS0yLjM1NyAxLjUzNEwxMy45MTIgMTEuNjY0YTEuMzYgMS4zNiAwIDAgMS0uMzIxLS40NDdjLS4wNzUtLjE2OS0uMTE1LS4zNTItLjExOC0uNTM4VjcuODg0YzAtLjc2OC0uMTQ2LTEuNDgtLjQzOC0yLjEzOC0uMjgtLjY3Ni0uNjktMS4yOS0xLjIwNy0xLjgwOGE1LjYgNS42IDAgMCAwLTEuODA2LTEuMjA2IDUuMiA1LjIgMCAwIDAtMi4xMzktLjQzOGMtLjc2NiAwLTEuNDk3LjE0Ny0yLjE5Mi40MzhhNS43OCA1Ljc4IDAgMCAwLTEuNzUzIDEuMjA2IDUuNjEgNS42MSAwIDAgMC0xLjIwNSAxLjgwOGMtLjI5My42NTgtLjQzOCAxLjM2OS0uNDM4IDIuMTM4cy4xNDYgMS40OTcuNDM4IDIuMTkyYTUuNzkgNS43OSAwIDAgMCAxLjIwNiAxLjc1NGMuNTEuNTEgMS4wOTQuOTEyIDEuNzU0IDEuMjA1LjY5My4yOTMgMS40MjQuNDM4IDIuMTkyLjQzOGgyLjc5M2MuMzY3IDAgLjY5NC4xNDcuOTg3LjQzOGwxLjQyNCAxLjQyNmMuMTI0LjEyLjIyMi4yNjUuMjg4LjQyNWExLjI3IDEuMjcgMCAwIDEgLjA5Ni41MDR2MS40MjZoMS40MjZjLjkxMiAwIDEuMzY4LjQ1NiAxLjM2OCAxLjM2OHYxLjQyNWgxLjQyNmMuNDAzIDAgLjczMS4xMjguOTg3LjM4NC4yOTEuMjU2LjQzOC42MDMuNDM4IDEuMDQxdjEuMzY5aDEuMzY5Yy4zNjUgMCAuNjk0LjE0Ni45ODcuNDM4bC45ODUuOTg3aDIuMjQ2ek03Ljg4NCA1LjA4OGMuNzY4IDAgMS40MjYuMjc0IDEuOTczLjgyMnMuODI0IDEuMjA1LjgyNCAxLjk3M2EyLjY5IDIuNjkgMCAwIDEtLjgyNCAxLjk3MyAyLjY5IDIuNjkgMCAwIDEtMS45NzMuODIyIDIuNjkgMi42OSAwIDAgMS0xLjk3My0uODI0IDIuNjkgMi42OSAwIDAgMS0uODE5LTEuOTcxYzAtLjc2OC4yNzQtMS40MjYuODIyLTEuOTczYTIuNjkgMi42OSAwIDAgMSAxLjk3MS0uODIyeiIvPiYjeGE7PC9zdmc+;" parent="ZFltCzr6f2ZrhAheu0pq-16" vertex="1">
          <mxGeometry x="411" y="945" width="28" height="28" as="geometry" />
        </mxCell>
        <mxCell id="ZFltCzr6f2ZrhAheu0pq-99" value="" style="shape=image;editableCssRules=.*;verticalLabelPosition=bottom;labelBackgroundColor=default;verticalAlign=top;aspect=fixed;imageAspect=0;image=data:image/svg+xml,PHN2ZyB4bWxucz0iaHR0cDovL3d3dy53My5vcmcvMjAwMC9zdmciIHZpZXdCb3g9Ii0wLjUgLTAuNSAyOC4wMDIgMjgiIGhlaWdodD0iMjgiIHdpZHRoPSIyOC4wMDIiPiYjeGE7CSAgPHN0eWxlIHR5cGU9InRleHQvY3NzIj4mI3hhOwkJLnN0MHtzdG9wLWNvbG9yOiMwMGNlYWM7fSYjeGE7CQkuc3Qxe3N0b3AtY29sb3I6IzA3ODM4Zjt9JiN4YTsJICA8L3N0eWxlPiYjeGE7CTxkZWZzPiYjeGE7CQk8bGluZWFyR3JhZGllbnQgZ3JhZGllbnRVbml0cz0idXNlclNwYWNlT25Vc2UiIHkyPSIyNS4zMSIgeDI9IjIzLjQ1NCIgeTE9IjMuNDc0IiB4MT0iMi4wMzkiIGlkPSJBIj4mI3hhOwkJCTxzdG9wIGNsYXNzPSJzdDAiLz4mI3hhOwkJCTxzdG9wIGNsYXNzPSJzdDEiIG9mZnNldD0iMSIvPiYjeGE7CQk8L2xpbmVhckdyYWRpZW50PiYjeGE7CTwvZGVmcz4mI3hhOwk8cGF0aCBmaWxsPSJ1cmwoI0EpIiBkPSJNMjcuMDYzIDIwLjkyNGMuMjkzLjI5My40MzguNjIxLjQzOC45ODd2NC4xNjVjMCAuOTQ5LS40NzQgMS40MjQtMS40MjYgMS40MjRoLTQuMTYzYy0uMTg2LS4wMDItLjM2OS0uMDQyLS41MzktLjExN3MtLjMyMi0uMTg1LS40NDgtLjMyMWwtLjk4Ny0uOTg1aC0yLjI0NGExLjUzIDEuNTMgMCAwIDEtMS4wNDMtLjM4NGMtLjEyOC0uMTMtLjIyNy0uMjg0LS4yOTMtLjQ1NHMtLjA5Ni0uMzUxLS4wODktLjUzM3YtMS40MjRoLTEuMzdhMS41MyAxLjUzIDAgMCAxLTEuMDQyLS4zODRjLS4xMjgtLjEzLS4yMjgtLjI4NC0uMjk0LS40NTNzLS4wOTctLjM1MS0uMDktLjUzMnYtMS40MjZoLTEuMzdjLS45NSAwLTEuNDI2LS40NzMtMS40MjYtMS40MjRWMTYuODdsLS41NDctLjYwM0g3Ljg4NGMtMS4xMzEgMC0yLjIwOS0uMjE5LTMuMjMyLS42NThhOC40OCA4LjQ4IDAgMCAxLTIuNjg1LTEuODA4Yy0uNzcxLS43Ny0xLjM4Ni0xLjY4Mi0xLjgxMS0yLjY4NUE4LjEyIDguMTIgMCAwIDEtLjUgNy44ODRjMC0xLjE3LjIxOS0yLjI0Ni42NTgtMy4yMzMuNDI1LTEuMDAzIDEuMDM5LTEuOTE0IDEuODA4LTIuNjg1UzMuNjUuNTgyIDQuNjU0LjE1OEE4LjEyIDguMTIgMCAwIDEgNy44ODUtLjVjMS4xNjggMCAyLjI0NC4yMTkgMy4yMzIuNjU4IDEuMDI0LjQzOCAxLjkxOCAxLjA0IDIuNjg2IDEuODA2czEuMzY4IDEuNjY0IDEuODA2IDIuNjg2Yy40MzguOTg3LjY1OSAyLjA2NC42NTkgMy4yMzN2Mi4yNDV6bS0yLjM1NyAxLjUzNEwxMy45MTIgMTEuNjY0YTEuMzYgMS4zNiAwIDAgMS0uMzIxLS40NDdjLS4wNzUtLjE2OS0uMTE1LS4zNTItLjExOC0uNTM4VjcuODg0YzAtLjc2OC0uMTQ2LTEuNDgtLjQzOC0yLjEzOC0uMjgtLjY3Ni0uNjktMS4yOS0xLjIwNy0xLjgwOGE1LjYgNS42IDAgMCAwLTEuODA2LTEuMjA2IDUuMiA1LjIgMCAwIDAtMi4xMzktLjQzOGMtLjc2NiAwLTEuNDk3LjE0Ny0yLjE5Mi40MzhhNS43OCA1Ljc4IDAgMCAwLTEuNzUzIDEuMjA2IDUuNjEgNS42MSAwIDAgMC0xLjIwNSAxLjgwOGMtLjI5My42NTgtLjQzOCAxLjM2OS0uNDM4IDIuMTM4cy4xNDYgMS40OTcuNDM4IDIuMTkyYTUuNzkgNS43OSAwIDAgMCAxLjIwNiAxLjc1NGMuNTEuNTEgMS4wOTQuOTEyIDEuNzU0IDEuMjA1LjY5My4yOTMgMS40MjQuNDM4IDIuMTkyLjQzOGgyLjc5M2MuMzY3IDAgLjY5NC4xNDcuOTg3LjQzOGwxLjQyNCAxLjQyNmMuMTI0LjEyLjIyMi4yNjUuMjg4LjQyNWExLjI3IDEuMjcgMCAwIDEgLjA5Ni41MDR2MS40MjZoMS40MjZjLjkxMiAwIDEuMzY4LjQ1NiAxLjM2OCAxLjM2OHYxLjQyNWgxLjQyNmMuNDAzIDAgLjczMS4xMjguOTg3LjM4NC4yOTEuMjU2LjQzOC42MDMuNDM4IDEuMDQxdjEuMzY5aDEuMzY5Yy4zNjUgMCAuNjk0LjE0Ni45ODcuNDM4bC45ODUuOTg3aDIuMjQ2ek03Ljg4NCA1LjA4OGMuNzY4IDAgMS40MjYuMjc0IDEuOTczLjgyMnMuODI0IDEuMjA1LjgyNCAxLjk3M2EyLjY5IDIuNjkgMCAwIDEtLjgyNCAxLjk3MyAyLjY5IDIuNjkgMCAwIDEtMS45NzMuODIyIDIuNjkgMi42OSAwIDAgMS0xLjk3My0uODI0IDIuNjkgMi42OSAwIDAgMS0uODE5LTEuOTcxYzAtLjc2OC4yNzQtMS40MjYuODIyLTEuOTczYTIuNjkgMi42OSAwIDAgMSAxLjk3MS0uODIyeiIvPiYjeGE7PC9zdmc+;" parent="ZFltCzr6f2ZrhAheu0pq-16" vertex="1">
          <mxGeometry x="962" y="945" width="28" height="28" as="geometry" />
        </mxCell>
        <mxCell id="ZFltCzr6f2ZrhAheu0pq-100" value="&lt;div style=&quot;text-align: left;&quot;&gt;&lt;span style=&quot;white-space: nowrap; background-color: initial;&quot;&gt;Generate symmetric key with Pre-master key&lt;/span&gt;&lt;/div&gt;&lt;div style=&quot;text-align: left;&quot;&gt;&lt;span style=&quot;white-space: nowrap; background-color: initial;&quot;&gt;and client/server random number&lt;/span&gt;&lt;/div&gt;" style="text;html=1;align=center;verticalAlign=middle;whiteSpace=wrap;rounded=0;" parent="ZFltCzr6f2ZrhAheu0pq-16" vertex="1">
          <mxGeometry x="314" y="903" width="246" height="30" as="geometry" />
        </mxCell>
        <mxCell id="ZFltCzr6f2ZrhAheu0pq-101" value="&lt;div&gt;&lt;span style=&quot;white-space: nowrap; background-color: initial;&quot;&gt;Generate symmetric key with Pre-master key&lt;/span&gt;&lt;/div&gt;&lt;div&gt;&lt;span style=&quot;white-space: nowrap; background-color: initial;&quot;&gt;and client/server random number&lt;/span&gt;&lt;/div&gt;" style="text;html=1;align=left;verticalAlign=middle;whiteSpace=wrap;rounded=0;" parent="ZFltCzr6f2ZrhAheu0pq-16" vertex="1">
          <mxGeometry x="853" y="903" width="250" height="30" as="geometry" />
        </mxCell>
        <mxCell id="YdSrwPDfUmepgaEIQRvP-1" value="" style="edgeStyle=entityRelationEdgeStyle;startArrow=none;endArrow=none;segment=10;curved=1;sourcePerimeterSpacing=0;targetPerimeterSpacing=0;rounded=0;entryX=1;entryY=0.5;entryDx=0;entryDy=0;" edge="1" target="YdSrwPDfUmepgaEIQRvP-2" source="ZFltCzr6f2ZrhAheu0pq-31" parent="ZFltCzr6f2ZrhAheu0pq-16">
          <mxGeometry relative="1" as="geometry">
            <mxPoint x="345" y="324" as="sourcePoint" />
          </mxGeometry>
        </mxCell>
        <mxCell id="YdSrwPDfUmepgaEIQRvP-2" value="加密" style="whiteSpace=wrap;html=1;rounded=1;arcSize=50;align=center;verticalAlign=middle;strokeWidth=1;autosize=1;spacing=4;treeFolding=1;treeMoving=1;newEdgeStyle={&quot;edgeStyle&quot;:&quot;entityRelationEdgeStyle&quot;,&quot;startArrow&quot;:&quot;none&quot;,&quot;endArrow&quot;:&quot;none&quot;,&quot;segment&quot;:10,&quot;curved&quot;:1,&quot;sourcePerimeterSpacing&quot;:0,&quot;targetPerimeterSpacing&quot;:0};shape=label;top=0;left=0;bottom=1;right=0;fillColor=#fff2cc;routingCenterY=0.5;snapToPoint=1;recursiveResize=0;strokeColor=#d6b656;" vertex="1" parent="ZFltCzr6f2ZrhAheu0pq-16">
          <mxGeometry x="224" y="50" width="63" height="30" as="geometry" />
        </mxCell>
        <mxCell id="YdSrwPDfUmepgaEIQRvP-3" value="" style="edgeStyle=entityRelationEdgeStyle;startArrow=none;endArrow=none;segment=10;curved=1;sourcePerimeterSpacing=0;targetPerimeterSpacing=0;rounded=0;entryX=1;entryY=0.5;entryDx=0;entryDy=0;" edge="1" target="YdSrwPDfUmepgaEIQRvP-4" source="ZFltCzr6f2ZrhAheu0pq-33" parent="ZFltCzr6f2ZrhAheu0pq-16">
          <mxGeometry relative="1" as="geometry">
            <mxPoint x="345" y="324" as="sourcePoint" />
          </mxGeometry>
        </mxCell>
        <mxCell id="YdSrwPDfUmepgaEIQRvP-4" value="hash" style="whiteSpace=wrap;html=1;rounded=1;arcSize=50;align=center;verticalAlign=middle;strokeWidth=1;autosize=1;spacing=4;treeFolding=1;treeMoving=1;newEdgeStyle={&quot;edgeStyle&quot;:&quot;entityRelationEdgeStyle&quot;,&quot;startArrow&quot;:&quot;none&quot;,&quot;endArrow&quot;:&quot;none&quot;,&quot;segment&quot;:10,&quot;curved&quot;:1,&quot;sourcePerimeterSpacing&quot;:0,&quot;targetPerimeterSpacing&quot;:0};shape=label;top=0;left=0;bottom=1;right=0;fillColor=#fff2cc;routingCenterY=0.5;snapToPoint=1;recursiveResize=0;fontSize=12;strokeColor=#d6b656;" vertex="1" parent="ZFltCzr6f2ZrhAheu0pq-16">
          <mxGeometry x="220" y="102" width="67" height="30" as="geometry" />
        </mxCell>
      </root>
    </mxGraphModel>
  </diagram>
</mxfile>
